<mxfile host="app.diagrams.net" modified="2023-05-18T16:37:55.876Z" agent="5.0 (Windows NT 10.0; Win64; x64) AppleWebKit/537.36 (KHTML, like Gecko) Chrome/113.0.0.0 Safari/537.36" etag="dGyBhMxTZIhblSfVJMQ1" version="20.8.23" type="github">
  <diagram name="第 1 页" id="F0X6GcTNjpCTjNLhKI5u">
    <mxGraphModel dx="1434" dy="764" grid="0" gridSize="10" guides="1" tooltips="1" connect="1" arrows="1" fold="1" page="1" pageScale="1" pageWidth="827" pageHeight="1169" background="none" math="0" shadow="0">
      <root>
        <mxCell id="0" />
        <mxCell id="1" parent="0" />
        <mxCell id="69Zu3LZ7ICb0ZbU4E0RN-16" style="edgeStyle=orthogonalEdgeStyle;rounded=0;orthogonalLoop=1;jettySize=auto;html=1;exitX=0.5;exitY=1;exitDx=0;exitDy=0;entryX=0;entryY=0.5;entryDx=0;entryDy=0;fontSize=17;" edge="1" parent="1" source="69Zu3LZ7ICb0ZbU4E0RN-2" target="69Zu3LZ7ICb0ZbU4E0RN-7">
          <mxGeometry relative="1" as="geometry" />
        </mxCell>
        <mxCell id="69Zu3LZ7ICb0ZbU4E0RN-17" style="edgeStyle=orthogonalEdgeStyle;rounded=0;orthogonalLoop=1;jettySize=auto;html=1;exitX=0.5;exitY=1;exitDx=0;exitDy=0;entryX=0;entryY=0.5;entryDx=0;entryDy=0;fontSize=17;" edge="1" parent="1" source="69Zu3LZ7ICb0ZbU4E0RN-2" target="69Zu3LZ7ICb0ZbU4E0RN-8">
          <mxGeometry relative="1" as="geometry" />
        </mxCell>
        <mxCell id="69Zu3LZ7ICb0ZbU4E0RN-18" style="edgeStyle=orthogonalEdgeStyle;rounded=0;orthogonalLoop=1;jettySize=auto;html=1;exitX=0.5;exitY=1;exitDx=0;exitDy=0;entryX=0;entryY=0.5;entryDx=0;entryDy=0;fontSize=17;" edge="1" parent="1" source="69Zu3LZ7ICb0ZbU4E0RN-2" target="69Zu3LZ7ICb0ZbU4E0RN-9">
          <mxGeometry relative="1" as="geometry" />
        </mxCell>
        <mxCell id="69Zu3LZ7ICb0ZbU4E0RN-19" style="edgeStyle=orthogonalEdgeStyle;rounded=0;orthogonalLoop=1;jettySize=auto;html=1;exitX=0.5;exitY=1;exitDx=0;exitDy=0;entryX=0;entryY=0.5;entryDx=0;entryDy=0;fontSize=17;" edge="1" parent="1" source="69Zu3LZ7ICb0ZbU4E0RN-2" target="69Zu3LZ7ICb0ZbU4E0RN-3">
          <mxGeometry relative="1" as="geometry" />
        </mxCell>
        <mxCell id="69Zu3LZ7ICb0ZbU4E0RN-2" value="&lt;font style=&quot;font-size: 17px;&quot;&gt;多波段视频监控系统&lt;/font&gt;" style="rounded=1;whiteSpace=wrap;html=1;" vertex="1" parent="1">
          <mxGeometry x="157" y="71" width="489" height="60" as="geometry" />
        </mxCell>
        <mxCell id="69Zu3LZ7ICb0ZbU4E0RN-3" value="视频采集模块" style="rounded=1;whiteSpace=wrap;html=1;fontSize=17;direction=south;" vertex="1" parent="1">
          <mxGeometry x="153" y="206" width="34" height="165" as="geometry" />
        </mxCell>
        <mxCell id="69Zu3LZ7ICb0ZbU4E0RN-7" value="视频流传输模块" style="rounded=1;whiteSpace=wrap;html=1;fontSize=17;direction=south;" vertex="1" parent="1">
          <mxGeometry x="294" y="206" width="34" height="165" as="geometry" />
        </mxCell>
        <mxCell id="69Zu3LZ7ICb0ZbU4E0RN-8" value="用户管理模块" style="rounded=1;whiteSpace=wrap;html=1;fontSize=17;direction=south;" vertex="1" parent="1">
          <mxGeometry x="473" y="206" width="34" height="165" as="geometry" />
        </mxCell>
        <mxCell id="69Zu3LZ7ICb0ZbU4E0RN-9" value="视频管理模块" style="rounded=1;whiteSpace=wrap;html=1;fontSize=17;direction=south;" vertex="1" parent="1">
          <mxGeometry x="623" y="206" width="34" height="165" as="geometry" />
        </mxCell>
      </root>
    </mxGraphModel>
  </diagram>
</mxfile>
